<svg width="32" height="32" viewBox="0 0 32 32" fill="none" xmlns="http://www.w3.org/2000/svg">
<g clip-path="url(#clip0_153_473)">
<path fill-rule="evenodd" clip-rule="evenodd" d="M3.076 16.2147C4.40934 17.2281 5.356 16.2814 4.32934 15.1614L4.22267 15.0547C4.00282 14.8467 3.77133 14.6512 3.52934 14.4694C3.276 14.2827 3.00933 14.1227 2.74267 13.9627C2.09795 13.6003 1.41968 13.3012 0.717335 13.0694C0.598872 13.0111 0.462082 13.0022 0.337057 13.0447C0.212033 13.0872 0.109016 13.1776 0.0506682 13.2961C-0.0076794 13.4145 -0.0165779 13.5513 0.0259304 13.6763C0.0684386 13.8014 0.158872 13.9044 0.277335 13.9627C0.850668 14.3494 1.33067 14.8427 1.87733 15.2961C2.22845 15.6072 2.59733 15.8961 2.984 16.1627L3.076 16.2147ZM15.992 23.4801C15.9478 23.3563 15.8562 23.2552 15.7375 23.1989C15.6187 23.1426 15.4824 23.1359 15.3587 23.1801C15.2349 23.2243 15.1338 23.3158 15.0775 23.4346C15.0212 23.5534 15.0145 23.6896 15.0587 23.8134C15.1325 24.2022 15.049 24.6044 14.8265 24.9316C14.604 25.2589 14.2607 25.4844 13.872 25.5587C13.6369 25.5651 13.4036 25.5148 13.192 25.4121C12.9643 25.3245 12.7559 25.1931 12.5787 25.0254C12.4614 24.9019 12.3502 24.7729 12.2453 24.6387C12.185 24.5442 12.14 24.4407 12.112 24.3321C12.0579 24.0784 12.0957 23.8138 12.2187 23.5854C12.312 23.4921 12.3787 23.3987 12.4587 23.3054C12.57 23.1509 12.7104 23.0196 12.872 22.9187C13.1652 22.7266 13.5081 22.6242 13.8587 22.6242C14.2092 22.6242 14.5521 22.7266 14.8453 22.9187C14.9304 22.9889 15.0387 23.0247 15.1488 23.0188C15.2589 23.013 15.3628 22.966 15.4399 22.8872C15.5171 22.8084 15.5618 22.7035 15.5653 22.5933C15.5687 22.4831 15.5307 22.3756 15.4587 22.2921C15.131 21.9563 14.7205 21.7129 14.2687 21.5865C13.8169 21.4601 13.3397 21.4551 12.8853 21.5721C12.8824 21.3648 12.851 21.1588 12.792 20.9601C12.7578 20.8674 12.6973 20.7868 12.6179 20.7281C12.5385 20.6695 12.4436 20.6352 12.3451 20.6297C12.2465 20.6242 12.1484 20.6476 12.063 20.6971C11.9775 20.7465 11.9083 20.8198 11.864 20.9081C11.8354 20.9678 11.8191 21.0328 11.8161 21.099C11.8131 21.1652 11.8235 21.2313 11.8467 21.2934C11.92 21.5187 11.92 21.7614 11.8467 21.9867C11.436 22.2222 11.0955 22.5628 10.86 22.9734C10.8068 22.9788 10.7532 22.9788 10.7 22.9734C10.4688 22.9832 10.2391 22.9326 10.0333 22.8267C9.7769 22.7667 9.53607 22.6531 9.32667 22.4934C9.20808 22.3749 9.10094 22.2454 9.00667 22.1067C8.93638 22.0162 8.88636 21.9116 8.86 21.8001C8.81699 21.519 8.86495 21.2316 8.99688 20.9797C9.12881 20.7278 9.3378 20.5247 9.59334 20.4001C9.88526 20.2046 10.2287 20.1002 10.58 20.1002C10.9313 20.1002 11.2747 20.2046 11.5667 20.4001C11.6529 20.4734 11.7639 20.5111 11.8769 20.5053C11.99 20.4995 12.0966 20.4508 12.1749 20.3691C12.2532 20.2874 12.2974 20.1788 12.2983 20.0656C12.2993 19.9524 12.257 19.8431 12.18 19.7601C11.9096 19.4733 11.5758 19.254 11.2053 19.1197C10.8348 18.9854 10.438 18.9398 10.0467 18.9867C10.0942 18.6145 10.0389 18.2364 9.88667 17.8934C9.83851 17.775 9.74648 17.6797 9.6298 17.6275C9.51312 17.5753 9.38078 17.5702 9.2604 17.6132C9.14001 17.6562 9.04087 17.744 8.98366 17.8583C8.92645 17.9726 8.91559 18.1046 8.95333 18.2267C8.99931 18.4225 9.00041 18.6262 8.95654 18.8224C8.91267 19.0187 8.82497 19.2025 8.7 19.3601C8.44121 19.4987 8.20367 19.6739 7.99467 19.8801C7.91787 19.9189 7.83749 19.9501 7.75467 19.9734C7.52448 19.973 7.29709 19.923 7.088 19.8267C6.86025 19.7392 6.65188 19.6078 6.47467 19.4401C6.353 19.3207 6.24151 19.1913 6.14133 19.0534C6.0724 18.9587 6.02673 18.8491 6.008 18.7334C5.95308 18.4483 5.99884 18.153 6.13745 17.8979C6.27606 17.6428 6.49893 17.4438 6.768 17.3347C7.0612 17.1426 7.40412 17.0402 7.75467 17.0402C8.10522 17.0402 8.44814 17.1426 8.74133 17.3347C8.82747 17.3853 8.92824 17.405 9.02707 17.3907C9.12591 17.3764 9.21693 17.3288 9.28518 17.2559C9.35343 17.183 9.39485 17.0891 9.40264 16.9895C9.41042 16.8899 9.3841 16.7907 9.328 16.7081C8.90687 16.3326 8.39108 16.0795 7.83645 15.9761C7.28182 15.8727 6.70946 15.9229 6.18133 16.1214C5.62504 16.3014 5.15189 16.6752 4.848 17.1747C4.46458 17.712 4.29403 18.3723 4.36934 19.0281C4.416 19.3081 4.51067 19.5787 4.64933 19.8281C4.83956 20.1241 5.06178 20.3952 5.316 20.6414C5.70267 20.9747 6.16534 21.2121 6.66267 21.3334C6.86622 21.3956 7.07511 21.4312 7.28933 21.4401C7.26256 21.657 7.26256 21.8764 7.28933 22.0934C7.33727 22.3716 7.43676 22.6384 7.58267 22.8801C7.76311 23.1876 7.98489 23.4632 8.248 23.7067C8.89023 24.2516 9.71304 24.5365 10.5547 24.5054C10.5619 24.5406 10.5619 24.5769 10.5547 24.6121C10.5987 24.8947 10.6987 25.1667 10.848 25.4121C11.028 25.7134 11.252 25.9881 11.5133 26.2254C11.8947 26.5601 12.352 26.7987 12.8467 26.9187C13.3344 27.0571 13.851 27.0571 14.3387 26.9187C14.6959 26.8085 15.0274 26.6278 15.3136 26.3873C15.5999 26.1469 15.8351 25.8515 16.0053 25.5187C16.1522 25.1984 16.2271 24.8497 16.2248 24.4973C16.2225 24.1448 16.1431 23.7972 15.992 23.4787M14.392 8.47207C14.5733 8.50763 14.7511 8.55652 14.9253 8.61874C15.8453 8.99207 16.352 8.01874 15.6853 7.59207C15.3529 7.39462 14.9936 7.24642 14.6187 7.15207C13.7859 6.97295 12.9277 6.94584 12.0853 7.07207C11.3419 7.12181 10.5953 7.08602 9.86 6.9654L7.128 5.93874C6.496 5.67385 5.84267 5.47385 5.168 5.33874C5.11117 5.34366 5.05598 5.36029 5.00589 5.38759C4.9558 5.41488 4.91191 5.45225 4.87696 5.49733C4.84202 5.54242 4.81679 5.59425 4.80286 5.64956C4.78892 5.70488 4.78659 5.76248 4.796 5.81874C4.80497 5.91827 4.84859 6.01149 4.91925 6.08216C4.98991 6.15282 5.08314 6.19644 5.18267 6.2054C5.18267 6.2054 5.34267 6.2854 5.48934 6.3654C6.316 6.79207 8.06133 7.8854 9.248 8.4854C9.73467 8.76407 10.2747 8.93607 10.8347 8.99207L12.34 8.6854C13.0099 8.51429 13.7012 8.44242 14.392 8.47207ZM31.8787 5.16674C31.8095 5.05208 31.6977 4.96948 31.5678 4.937C31.4378 4.90452 31.3004 4.9248 31.1853 4.9934L28.812 6.32674C28.3877 6.57153 27.9418 6.77684 27.48 6.94007C27.2087 7.02701 26.9248 7.06758 26.64 7.06007C26.1938 7.05244 25.7484 7.01682 25.3067 6.9534C24.9149 6.88486 24.5279 6.79133 24.148 6.6734C23.588 6.48674 23.0547 6.24674 22.4947 6.08674C22.0629 5.95662 21.6136 5.89366 21.1627 5.90007C20.8009 5.91607 20.4498 5.98718 20.1093 6.1134C19.6387 6.2694 19.1893 6.4894 18.776 6.76674C18.4427 6.96674 15.3787 9.80407 15.0853 10.1107C14.5703 10.596 14.122 11.1475 13.752 11.7507C13.496 12.2041 13.3493 12.7107 13.3253 13.2307C13.2956 13.5346 13.3354 13.8412 13.4417 14.1274C13.5479 14.4136 13.7179 14.6719 13.9387 14.8827C14.2523 15.1307 14.6176 15.305 15.0076 15.3927C15.3977 15.4804 15.8025 15.4793 16.192 15.3894C16.88 15.2507 17.5253 14.9494 18.0707 14.5094C18.6164 14.0756 19.1231 13.6001 19.5907 13.0827C20.2692 13.3682 20.9889 13.5437 21.7227 13.6027C22.0693 13.6427 22.416 13.6427 22.7627 13.6027C23.1049 13.553 23.4382 13.4641 23.7627 13.3361C24.4977 13.0262 25.1636 12.573 25.7213 12.0027C25.7701 11.9707 25.8118 11.929 25.8438 11.8803C25.8758 11.8315 25.8975 11.7767 25.9075 11.7192C25.9175 11.6617 25.9156 11.6028 25.9019 11.546C25.8883 11.4893 25.8631 11.436 25.828 11.3894C25.7948 11.3421 25.7525 11.3018 25.7037 11.2709C25.6549 11.2399 25.6004 11.2189 25.5434 11.209C25.4865 11.1991 25.4281 11.2005 25.3717 11.2131C25.3153 11.2258 25.2619 11.2494 25.2147 11.2827C24.6018 11.5441 23.9556 11.7191 23.2947 11.8027L22.1347 12.0027C21.868 12.0027 21.628 12.0961 21.3613 12.1094C20.9446 12.1421 20.526 12.1421 20.1093 12.1094C20.123 12.0615 20.123 12.0107 20.1093 11.9627C20.0695 11.9216 20.0219 11.8889 19.9692 11.8666C19.9165 11.8442 19.8599 11.8327 19.8027 11.8327C19.7454 11.8327 19.6888 11.8442 19.6361 11.8666C19.5834 11.8889 19.5358 11.9216 19.496 11.9627C18.8649 12.5894 18.1898 13.1627 17.4707 13.6827C17.0412 13.9796 16.5479 14.1714 16.0307 14.2427C15.6729 14.3001 15.3062 14.2343 14.9907 14.0561C14.8655 13.9874 14.7658 13.8804 14.706 13.7508C14.6462 13.6212 14.6296 13.4758 14.6587 13.3361C14.7147 13.0321 14.832 12.7414 15.0053 12.4827C15.3387 12.017 15.7209 11.5947 16.152 11.2161C16.8053 10.5641 17.4853 9.88407 18.1773 9.23207C18.6128 8.82934 19.0811 8.46362 19.5773 8.13874C19.8351 7.9654 20.1062 7.81429 20.3907 7.6854C20.9155 7.45521 21.5036 7.41283 22.056 7.5654C22.6027 7.6854 23.1227 7.8854 23.6693 8.0454C24.1467 8.1654 24.6307 8.24985 25.1213 8.29874C25.6013 8.3254 26.0813 8.3254 26.5613 8.29874C26.988 8.2854 27.4107 8.2054 27.8133 8.05874C28.3426 7.83739 28.8512 7.56968 29.3333 7.25874L31.6387 5.8054C31.7536 5.75036 31.8427 5.653 31.8875 5.5337C31.9322 5.41441 31.9291 5.28376 31.8787 5.16674Z" fill="#666666"/>
<path fill-rule="evenodd" clip-rule="evenodd" d="M24.7467 18.6669C24.6652 18.4338 24.5676 18.2066 24.4547 17.9869C24.0771 17.3406 23.63 16.7374 23.1213 16.1883L21.6947 14.5616C21.6217 14.4796 21.5208 14.4279 21.4117 14.4165C21.3026 14.405 21.1931 14.4348 21.1048 14.4999C21.0165 14.565 20.9557 14.6608 20.9344 14.7684C20.913 14.876 20.9326 14.9877 20.9893 15.0816L22.0427 16.9749C22.3893 17.5296 22.6916 18.1074 22.9493 18.7083C23.1107 19.0443 23.2187 19.4043 23.2693 19.7749C23.3116 20.0079 23.3037 20.2472 23.2462 20.4769C23.1887 20.7065 23.083 20.9213 22.936 21.1069C22.7493 21.3203 22.5093 21.4803 22.2427 21.5736C22.2234 21.5234 22.2012 21.4744 22.176 21.4269C21.8948 21.0087 21.5829 20.6121 21.2427 20.2403L19.3227 18.0669C19.2859 18.0127 19.2388 17.9662 19.1841 17.9301C19.1293 17.894 19.068 17.8691 19.0036 17.8567C18.8736 17.8317 18.739 17.8593 18.6293 17.9336C18.5197 18.0079 18.4441 18.1226 18.4191 18.2527C18.3941 18.3827 18.4217 18.5173 18.496 18.6269L19.9893 21.1736C20.2436 21.5292 20.4791 21.898 20.696 22.2803C20.8116 22.4767 20.9004 22.6856 20.9627 22.9069C21.0368 23.0595 21.0586 23.2323 21.0249 23.3985C20.9912 23.5647 20.9037 23.7153 20.776 23.8269C20.5852 23.9842 20.3543 24.0853 20.1093 24.1189V23.9989C19.968 23.6962 19.7936 23.41 19.5893 23.1456C19.2693 22.7589 18.9627 22.3856 18.616 22.0256C18.2693 21.6656 17.9507 21.3189 17.5907 20.9869C17.5176 20.8976 17.4124 20.8406 17.2976 20.8281C17.1829 20.8156 17.0679 20.8487 16.9773 20.9203C16.8871 20.9957 16.8297 21.1032 16.8173 21.2201C16.8049 21.3371 16.8383 21.4542 16.9107 21.5469C17.124 21.8669 17.3107 22.1736 17.4973 22.5069C17.684 22.8403 18.0173 23.4803 18.2573 23.9869L18.6307 24.8923L18.444 25.2123C18.354 25.3563 18.2354 25.4804 18.0955 25.5767C17.9556 25.6731 17.7974 25.7396 17.6307 25.7723C17.3086 25.858 16.9661 25.8199 16.6707 25.6656C16.6155 25.6314 16.5542 25.6084 16.4902 25.5979C16.4261 25.5874 16.3606 25.5897 16.2975 25.6045C16.2343 25.6194 16.1747 25.6466 16.122 25.6845C16.0694 25.7224 16.0248 25.7704 15.9907 25.8256C15.9209 25.939 15.8985 26.0753 15.9285 26.2051C15.9584 26.3348 16.0382 26.4476 16.1507 26.5189C16.5792 26.8904 17.1303 27.09 17.6973 27.0789C18.2084 27.0927 18.7126 26.9592 19.1499 26.6944C19.5872 26.4297 19.9392 26.0448 20.164 25.5856C20.204 25.454 20.2307 25.3207 20.244 25.1856C20.7024 25.2173 21.1612 25.1301 21.576 24.9323C21.9684 24.7126 22.283 24.3766 22.4764 23.9707C22.6699 23.5647 22.7326 23.1087 22.656 22.6656C23.149 22.5732 23.6089 22.3524 23.9893 22.0256C24.2927 21.7489 24.5375 21.414 24.709 21.0409C24.8806 20.6678 24.9754 20.2641 24.988 19.8536C24.957 19.4497 24.8764 19.0511 24.748 18.6669M31.9853 17.0283C31.9698 16.9651 31.9418 16.9057 31.9032 16.8534C31.8646 16.8011 31.816 16.757 31.7602 16.7235C31.7044 16.69 31.6426 16.6679 31.5783 16.6585C31.514 16.649 31.4484 16.6523 31.3853 16.6683C30.572 16.7616 29.7853 16.7883 28.9987 16.9216C28.4641 17.0091 27.9381 17.1429 27.4267 17.3216C26.839 17.544 26.2796 17.8349 25.76 18.1883C24.668 18.6416 25.32 19.5216 26.3467 19.2283L27.5867 18.9749L28.52 18.7483L29.44 18.4549C30.1733 18.2016 30.8933 17.9216 31.6253 17.6283C31.6885 17.6127 31.7479 17.5848 31.8002 17.5461C31.8525 17.5075 31.8967 17.4589 31.9301 17.4031C31.9636 17.3474 31.9857 17.2856 31.9952 17.2212C32.0046 17.1569 32.0013 17.0913 31.9853 17.0283Z" fill="#666666"/>
</g>
<defs>
<clipPath id="clip0_153_473">
<rect width="32" height="32" fill="white"/>
</clipPath>
</defs>
</svg>
